<?xml version="1.0" encoding="utf-8"?>
<svg xmlns="http://www.w3.org/2000/svg" viewBox="196 125 290 315">
  <path d="M 409.567 191.499 C 416.543 191.856 417.614 191.784 422.957 192.39 C 436.516 193.318 450.076 193.671 463.626 194.672 C 467.252 194.94 471.111 195.145 474.665 195.891 L 474.669 196.116 C 458.53 197.659 440.742 197.434 424.447 198.423 C 417.686 198.677 410.997 198.475 404.252 199.135 C 399.231 199.626 394.974 203.347 396.684 208.742 C 398.215 213.57 400.943 218.296 403.119 222.964 C 409.114 235.823 414.482 249.256 416.427 263.405 C 419.592 286.853 413.363 310.602 399.095 329.476 C 380.884 353.485 350.797 368.916 322.113 376.065 C 317.085 377.318 310.638 378.907 305.532 379.611 C 290.446 383.028 271.759 382.783 256.411 381.095 C 251.67 380.573 246.643 379.38 241.587 378.844 C 243.632 377.955 254.754 378.839 258.217 378.726 C 268.833 378.509 279.411 377.619 289.842 375.887 C 359.349 364.343 430.163 316.486 398.749 237.396 C 395.235 228.549 390.631 219.178 388.372 209.905 C 385.444 197.887 399.671 191.9 409.567 191.499 Z" style="fill: rgb(255, 255, 255);" stroke="rgb(255, 255, 255)" stroke-width="8" stroke-linejoin="round"/>
  <path d="M204.085 257.134C205.698 257.954 213.877 267.101 215.793 268.997C251.327 304.156 293.181 315.946 342.663 311.951C340.926 312.582 339.143 313.054 337.363 313.555C335.811 314.048 334.248 314.508 332.676 314.936C304.081 322.708 273.567 318.774 247.878 304.004C232.622 295.141 218.029 281.958 208.795 266.836C207.243 264.293 204.831 259.95 204.085 257.134Z" style="fill: rgb(255, 255, 255);" stroke="rgb(255, 255, 255)" stroke-width="8" stroke-linejoin="round"/>
  <path d="M220.771 205.043C221.621 205.552 223.341 209.263 223.941 210.379C228.034 217.986 232.206 225.786 237.204 232.838C245.28 244.286 254.971 254.505 265.977 263.174C278.95 273.305 293.469 281.282 308.977 286.8C313.714 288.49 322.416 290.385 326.399 292.413C274.726 294.585 227.709 256.505 220.771 205.043Z" style="fill: rgb(255, 255, 255);" stroke="rgb(255, 255, 255)" stroke-width="8" stroke-linejoin="round"/>
  <path d="M259.713 157.361C260.383 158.264 260.554 164.521 260.564 166.043C260.791 198.132 274.794 229.424 297.604 251.845C303.248 257.393 309.382 262.515 315.593 267.708C314.304 267.218 313.01 266.744 311.71 266.284C288.188 258.158 270.038 239.64 260.833 216.595C253.821 199.044 252.154 174.992 259.713 157.361Z" style="fill: rgb(255, 255, 255);" stroke="rgb(255, 255, 255)" stroke-width="8" stroke-linejoin="round"/>
  <path d="M210.622 327.002C212.819 327.036 226.036 331.883 229.205 332.867C234.309 334.416 239.473 335.757 244.686 336.886C285.903 345.574 322.55 339.237 362.212 327.837L355.6 331.297C341.989 339.128 322.164 344.966 306.686 347.266C274.733 352.016 237.036 346.492 210.622 327.002Z" style="fill: rgb(255, 255, 255);" stroke="rgb(255, 255, 255)" stroke-width="8" stroke-linejoin="round"/>
  <path d="M305.7 131.444C305.842 131.604 305.983 131.764 306.125 131.924C304.61 136.638 301.576 146.015 300.301 150.254C291.986 177.892 297.386 207.606 309.107 233.594C306.727 231.484 304.814 229.631 302.573 227.382C278.394 201.621 279.544 155.329 305.7 131.444Z" style="fill: rgb(255, 255, 255);" stroke="rgb(255, 255, 255)" stroke-width="8" stroke-linejoin="round"/>
  <path d="M401.369 348.575L401.64 348.986C400.814 353.992 392.307 367.716 389.202 372.135C374.329 393.323 352.956 409.086 328.32 417.035C319.428 419.88 313.149 420.974 304.114 422.541L303.806 422.331C304.301 421.238 309.763 419.71 311.278 419.112C341.8 407.089 369.092 388.218 390.077 362.868C393.951 358.188 397.647 353.35 401.369 348.575Z" style="fill: rgb(255, 255, 255);" stroke="rgb(255, 255, 255)" stroke-width="8" stroke-linejoin="round"/>
  <path d="M421.673 351.307L422.087 351.682C423.162 355.375 422.384 367.17 421.61 371.334C417.006 396.077 405.449 414.898 385.183 429.515L384.874 429.441C384.783 428.956 395.811 413.579 397.2 411.351C408.382 393.413 417.925 372.247 421.673 351.307Z" style="fill: rgb(255, 255, 255);" stroke="rgb(255, 255, 255)" stroke-width="8" stroke-linejoin="round"/>
  <path d="M443.044 351.66C443.678 352.126 443.862 352.665 444.141 353.407C450.885 371.327 449.466 388.445 442.27 405.648L440.339 410.106C441.392 400.91 442.747 391.891 443.244 382.633C443.799 372.297 443.671 361.982 443.044 351.66Z" style="fill: rgb(255, 255, 255);" stroke="rgb(255, 255, 255)" stroke-width="8" stroke-linejoin="round"/>
  <path d="M464.372 347.273C473.576 352.323 476.799 365.989 477.494 375.576C474.226 373.73 465.884 351.574 464.372 347.273Z" style="fill: rgb(255, 255, 255);" stroke="rgb(255, 255, 255)" stroke-width="8" stroke-linejoin="round"/>
</svg>